<svg width="187" height="48" viewBox="0 0 187 48" fill="none" xmlns="http://www.w3.org/2000/svg">
<path d="M187 0.000488281H169.36V47.8064H187V0.000488281Z" fill="#001E40"/>
<path d="M16.5433 47.8059V23.8678C16.5433 22.9521 16.5246 21.6685 16.4853 20.0149C16.448 18.3654 16.4272 11.0813 16.4272 10.1862L26.8453 47.8059H55.2017L65.713 10.1862C65.713 11.0813 65.6943 18.3654 65.657 20.0149C65.6177 21.6685 65.599 22.9521 65.599 23.8678V47.8059H82.1423V0H53.2553L41.2722 45.6727L29.1752 0H0V47.8059H16.5433Z" fill="#001E40"/>
<path d="M117.076 47.8059H134.946V16.9619H160.367V0H91.5385V16.9619H117.076V47.8059Z" fill="#001E40"/>
</svg>
