<svg width="502" height="25" viewBox="0 0 502 25" fill="none" xmlns="http://www.w3.org/2000/svg">
<g clip-path="url(#clip0_2_1537)">
<path d="M0 0H6.20648L13.1464 19.1961H13.2184L19.9845 0H26.1189V24.5208H21.9262V5.59732H21.8541L14.8761 24.5208H11.2429L4.26484 5.59732H4.197V24.5208H0V0Z" fill="#001E40"/>
<path d="M48.1384 20.5719C48.1384 21.051 48.202 21.3939 48.3334 21.6005C48.4606 21.807 48.7149 21.9103 49.088 21.9103H49.5119C49.6773 21.9103 49.8638 21.8896 50.0758 21.8442V24.554C49.9359 24.5995 49.7536 24.6532 49.5289 24.711C49.3085 24.7647 49.0753 24.8184 48.8421 24.8638C48.609 24.9093 48.3715 24.9423 48.1384 24.9671C47.901 24.9919 47.7017 25.0002 47.5406 25.0002C46.7139 25.0002 46.0356 24.8432 45.493 24.521C44.9546 24.1988 44.6027 23.6411 44.4374 22.8397C43.6361 23.5957 42.6568 24.1451 41.4952 24.4879C40.3294 24.8308 39.2102 25.0002 38.1292 25.0002C37.3067 25.0002 36.5182 24.8928 35.7678 24.6738C35.0132 24.459 34.3519 24.1368 33.7753 23.7155C33.1987 23.29 32.7409 22.753 32.4017 22.1003C32.0583 21.4476 31.8888 20.6875 31.8888 19.8159C31.8888 18.7171 32.0965 17.8248 32.5077 17.135C32.9147 16.4493 33.4573 15.9123 34.1272 15.524C34.797 15.1356 35.5474 14.8547 36.3825 14.6813C37.2177 14.5078 38.0571 14.3797 38.905 14.2847C39.6299 14.1484 40.3252 14.0534 40.9823 13.9955C41.6394 13.9377 42.2202 13.8386 42.7289 13.7022C43.2334 13.5659 43.6319 13.3552 43.9244 13.0661C44.2212 12.7811 44.3653 12.3514 44.3653 11.7773C44.3653 11.2774 44.2424 10.8643 43.9965 10.5421C43.7506 10.224 43.4454 9.9762 43.0808 9.8027C42.7162 9.63334 42.3092 9.51767 41.8641 9.45984C41.4189 9.40614 40.995 9.37309 40.5965 9.37309C39.4688 9.37309 38.5404 9.60442 37.8112 10.0629C37.082 10.5215 36.6708 11.2278 36.5775 12.1903H32.5586C32.6307 11.0461 32.9105 10.096 33.4065 9.34004C33.8982 8.5841 34.5257 7.97686 35.2888 7.52246C36.0519 7.06394 36.9167 6.74173 37.879 6.55997C38.8456 6.37408 39.8292 6.2832 40.8424 6.2832C41.7326 6.2832 42.6144 6.37408 43.4835 6.55997C44.3526 6.74173 45.1369 7.03915 45.8279 7.45224C46.5232 7.86532 47.0785 8.39821 47.5025 9.05088C47.9264 9.69943 48.1384 10.4967 48.1384 11.4344V20.5719ZM44.1194 15.6272C43.509 16.0155 42.7586 16.251 41.8641 16.3295C40.9696 16.4121 40.0793 16.5319 39.1848 16.6889C38.7608 16.7591 38.3496 16.8582 37.9511 16.9821C37.5526 17.1102 37.2007 17.2796 36.8955 17.4985C36.5903 17.7174 36.3486 18.0025 36.1706 18.3577C35.9967 18.713 35.9077 19.1426 35.9077 19.6424C35.9077 20.0803 36.0349 20.4438 36.2935 20.7412C36.5521 21.0428 36.8658 21.2741 37.2304 21.4476C37.595 21.617 37.9935 21.7409 38.4259 21.807C38.8626 21.8772 39.2568 21.9103 39.6087 21.9103C40.0538 21.9103 40.5371 21.8524 41.0543 21.7409C41.5716 21.6252 42.0591 21.4311 42.5169 21.1543C42.9748 20.8817 43.3563 20.5306 43.6616 20.1092C43.9668 19.6837 44.1194 19.1632 44.1194 18.5436V15.6272Z" fill="#001E40"/>
<path d="M54.7137 0H58.7326V13.9417L65.9905 6.76636H70.9251L63.9471 13.289L71.595 24.5208H66.6985L61.1279 15.8997L58.7326 18.1675V24.5208H54.7137V0Z" fill="#001E40"/>
<path d="M77.8863 16.6558C77.8863 17.3415 77.9838 18.0066 78.183 18.6469C78.3823 19.2913 78.6833 19.849 79.0818 20.3323C79.4845 20.8115 79.989 21.1956 80.5995 21.4807C81.2099 21.7698 81.9391 21.9103 82.7828 21.9103C83.9613 21.9103 84.9067 21.6665 85.6232 21.1708C86.3396 20.6793 86.8738 19.9398 87.2257 18.9567H91.0326C90.8207 19.9192 90.4561 20.7784 89.9389 21.5344C89.4217 22.2903 88.7985 22.9223 88.0735 23.4387C87.3444 23.955 86.5262 24.3433 85.6232 24.6077C84.7159 24.868 83.7705 25.0002 82.7828 25.0002C81.3498 25.0002 80.0823 24.773 78.98 24.3144C77.8735 23.8559 76.9409 23.2156 76.1778 22.3936C75.4105 21.5674 74.8381 20.5843 74.4481 19.44C74.0623 18.2916 73.8673 17.0358 73.8673 15.6603C73.8673 14.4004 74.0708 13.2065 74.482 12.0705C74.8932 10.9387 75.4825 9.94315 76.2456 9.08393C77.0087 8.22471 77.9329 7.54312 79.0139 7.03915C80.095 6.53519 81.3159 6.2832 82.681 6.2832C84.1139 6.2832 85.3985 6.57649 86.5389 7.15895C87.6793 7.74553 88.6247 8.518 89.375 9.47636C90.1296 10.4389 90.6723 11.5459 91.0157 12.7934C91.3548 14.041 91.4439 15.3298 91.2785 16.6558H77.8863ZM87.2596 14.0823C87.2129 13.4626 87.0773 12.8678 86.8568 12.2936C86.6321 11.7236 86.3269 11.2237 85.9411 10.8024C85.5511 10.3769 85.0805 10.034 84.5294 9.76965C83.9783 9.50528 83.3593 9.37309 82.681 9.37309C81.973 9.37309 81.3329 9.49702 80.7563 9.73661C80.184 9.9762 79.688 10.3067 79.2768 10.7321C78.8656 11.1576 78.5391 11.6533 78.289 12.2275C78.0431 12.7976 77.9075 13.4172 77.8863 14.0823H87.2596Z" fill="#001E40"/>
<path d="M105.133 0H125.503V3.70952H117.503V24.5208H113.094V3.70952H105.133V0Z" fill="#001E40"/>
<path d="M135.406 25.0002C133.952 25.0002 132.651 24.7647 131.515 24.2979C130.374 23.827 129.408 23.1826 128.623 22.3564C127.835 21.5344 127.237 20.5471 126.826 19.4028C126.415 18.2586 126.207 16.9987 126.207 15.6272C126.207 14.2764 126.415 13.0289 126.826 11.8805C127.237 10.7363 127.835 9.75313 128.623 8.92696C129.408 8.10492 130.374 7.45637 131.515 6.98958C132.651 6.51866 133.952 6.2832 135.406 6.2832C136.865 6.2832 138.162 6.51866 139.302 6.98958C140.443 7.45637 141.405 8.10492 142.194 8.92696C142.978 9.75313 143.58 10.7363 143.991 11.8805C144.402 13.0289 144.606 14.2764 144.606 15.6272C144.606 16.9987 144.402 18.2586 143.991 19.4028C143.58 20.5471 142.978 21.5344 142.194 22.3564C141.405 23.1826 140.443 23.827 139.302 24.2979C138.162 24.7647 136.865 25.0002 135.406 25.0002ZM135.406 21.9103C136.301 21.9103 137.077 21.7285 137.734 21.3609C138.391 20.9973 138.934 20.514 139.353 19.9192C139.777 19.3243 140.091 18.6551 140.29 17.9116C140.489 17.1639 140.587 16.4038 140.587 15.6272C140.587 14.8713 140.489 14.1153 140.29 13.3594C140.091 12.6034 139.777 11.9342 139.353 11.3518C138.934 10.7652 138.391 10.2901 137.734 9.92663C137.077 9.55898 136.301 9.37309 135.406 9.37309C134.516 9.37309 133.74 9.55898 133.083 9.92663C132.422 10.2901 131.883 10.7652 131.46 11.3518C131.036 11.9342 130.726 12.6034 130.527 13.3594C130.328 14.1153 130.226 14.8713 130.226 15.6272C130.226 16.4038 130.328 17.1639 130.527 17.9116C130.726 18.6551 131.036 19.3243 131.46 19.9192C131.883 20.514 132.422 20.9973 133.083 21.3609C133.74 21.7285 134.516 21.9103 135.406 21.9103Z" fill="#001E40"/>
<path d="M149.914 6.76651H153.721V9.23677H153.827C154.132 8.80303 154.458 8.40234 154.814 8.03469C155.166 7.67117 155.556 7.36136 155.993 7.10938C156.43 6.85739 156.926 6.65498 157.489 6.50627C158.053 6.35756 158.702 6.2832 159.431 6.2832C160.533 6.2832 161.564 6.52279 162.513 7.0061C163.467 7.48529 164.141 8.22884 164.54 9.23677C165.222 8.32385 166.011 7.60095 166.901 7.0722C167.795 6.54758 168.91 6.2832 170.25 6.2832C172.175 6.2832 173.675 6.74173 174.744 7.65878C175.812 8.57583 176.346 10.1084 176.346 12.2606V24.521H172.332V14.1484C172.332 13.4379 172.306 12.7934 172.26 12.2069C172.213 11.6244 172.077 11.1204 171.853 10.6991C171.632 10.2736 171.297 9.94728 170.848 9.72008C170.403 9.48875 169.792 9.37309 169.016 9.37309C167.656 9.37309 166.668 9.78618 166.057 10.6124C165.443 11.4344 165.142 12.6034 165.142 14.1153V24.521H161.123V13.1198C161.123 11.8805 160.894 10.9511 160.436 10.3191C159.978 9.69117 159.134 9.37309 157.913 9.37309C157.396 9.37309 156.896 9.47636 156.417 9.68291C155.934 9.88945 155.51 10.1869 155.145 10.5752C154.78 10.9676 154.488 11.4468 154.267 12.021C154.043 12.591 153.933 13.2437 153.933 13.979V24.521H149.914V6.76651Z" fill="#001E40"/>
<path d="M190.832 25.0002C189.378 25.0002 188.077 24.7647 186.941 24.2979C185.8 23.827 184.834 23.1826 184.049 22.3564C183.261 21.5344 182.663 20.5471 182.252 19.4028C181.841 18.2586 181.633 16.9987 181.633 15.6272C181.633 14.2764 181.841 13.0289 182.252 11.8805C182.663 10.7363 183.261 9.75313 184.049 8.92696C184.834 8.10492 185.8 7.45637 186.941 6.98958C188.077 6.51866 189.378 6.2832 190.832 6.2832C192.291 6.2832 193.588 6.51866 194.728 6.98958C195.869 7.45637 196.831 8.10492 197.62 8.92696C198.404 9.75313 199.006 10.7363 199.417 11.8805C199.828 13.0289 200.032 14.2764 200.032 15.6272C200.032 16.9987 199.828 18.2586 199.417 19.4028C199.006 20.5471 198.404 21.5344 197.62 22.3564C196.831 23.1826 195.869 23.827 194.728 24.2979C193.588 24.7647 192.291 25.0002 190.832 25.0002ZM190.832 21.9103C191.727 21.9103 192.503 21.7285 193.16 21.3609C193.817 20.9973 194.359 20.514 194.779 19.9192C195.203 19.3243 195.517 18.6551 195.716 17.9116C195.915 17.1639 196.013 16.4038 196.013 15.6272C196.013 14.8713 195.915 14.1153 195.716 13.3594C195.517 12.6034 195.203 11.9342 194.779 11.3518C194.359 10.7652 193.817 10.2901 193.16 9.92663C192.503 9.55898 191.727 9.37309 190.832 9.37309C189.942 9.37309 189.166 9.55898 188.509 9.92663C187.848 10.2901 187.309 10.7652 186.885 11.3518C186.461 11.9342 186.152 12.6034 185.953 13.3594C185.754 14.1153 185.652 14.8713 185.652 15.6272C185.652 16.4038 185.754 17.1639 185.953 17.9116C186.152 18.6551 186.461 19.3243 186.885 19.9192C187.309 20.514 187.848 20.9973 188.509 21.3609C189.166 21.7285 189.942 21.9103 190.832 21.9103Z" fill="#001E40"/>
<path d="M205.34 6.76651H209.108V10.1993H209.18C209.299 9.72008 209.528 9.24916 209.867 8.79064C210.206 8.33211 210.622 7.9149 211.101 7.53899C211.584 7.15895 212.118 6.85739 212.703 6.62606C213.293 6.39887 213.89 6.2832 214.505 6.2832C214.971 6.2832 215.298 6.2956 215.472 6.32038C215.65 6.34104 215.832 6.36582 216.019 6.38647V10.1662C215.735 10.1208 215.451 10.0795 215.154 10.0464C214.861 10.0092 214.573 9.99272 214.293 9.99272C213.611 9.99272 212.97 10.1249 212.373 10.3893C211.771 10.6537 211.249 11.042 210.804 11.5542C210.355 12.0705 210.003 12.7067 209.744 13.4626C209.486 14.2186 209.358 15.0861 209.358 16.0734V24.521H205.34V6.76651Z" fill="#001E40"/>
<path d="M220.084 6.76651H223.853V10.1993H223.925C224.044 9.72008 224.273 9.24916 224.612 8.79064C224.951 8.33211 225.366 7.9149 225.846 7.53899C226.329 7.15895 226.863 6.85739 227.448 6.62606C228.037 6.39887 228.635 6.2832 229.25 6.2832C229.716 6.2832 230.043 6.2956 230.216 6.32038C230.394 6.34104 230.577 6.36582 230.763 6.38647V10.1662C230.479 10.1208 230.195 10.0795 229.898 10.0464C229.606 10.0092 229.318 9.99272 229.038 9.99272C228.355 9.99272 227.715 10.1249 227.117 10.3893C226.515 10.6537 225.994 11.042 225.549 11.5542C225.099 12.0705 224.748 12.7067 224.489 13.4626C224.23 14.2186 224.103 15.0861 224.103 16.0734V24.521H220.084V6.76651Z" fill="#001E40"/>
<path d="M243.066 25.0002C241.612 25.0002 240.31 24.7647 239.174 24.2979C238.034 23.827 237.067 23.1826 236.283 22.3564C235.494 21.5344 234.897 20.5471 234.485 19.4028C234.074 18.2586 233.866 16.9987 233.866 15.6272C233.866 14.2764 234.074 13.0289 234.485 11.8805C234.897 10.7363 235.494 9.75313 236.283 8.92696C237.067 8.10492 238.034 7.45637 239.174 6.98958C240.31 6.51866 241.612 6.2832 243.066 6.2832C244.524 6.2832 245.822 6.51866 246.962 6.98958C248.102 7.45637 249.065 8.10492 249.853 8.92696C250.638 9.75313 251.24 10.7363 251.651 11.8805C252.062 13.0289 252.265 14.2764 252.265 15.6272C252.265 16.9987 252.062 18.2586 251.651 19.4028C251.24 20.5471 250.638 21.5344 249.853 22.3564C249.065 23.1826 248.102 23.827 246.962 24.2979C245.822 24.7647 244.524 25.0002 243.066 25.0002ZM243.066 21.9103C243.96 21.9103 244.736 21.7285 245.393 21.3609C246.05 20.9973 246.593 20.514 247.013 19.9192C247.437 19.3243 247.75 18.6551 247.95 17.9116C248.149 17.1639 248.246 16.4038 248.246 15.6272C248.246 14.8713 248.149 14.1153 247.95 13.3594C247.75 12.6034 247.437 11.9342 247.013 11.3518C246.593 10.7652 246.05 10.2901 245.393 9.92663C244.736 9.55898 243.96 9.37309 243.066 9.37309C242.176 9.37309 241.4 9.55898 240.743 9.92663C240.081 10.2901 239.543 10.7652 239.119 11.3518C238.695 11.9342 238.386 12.6034 238.186 13.3594C237.987 14.1153 237.885 14.8713 237.885 15.6272C237.885 16.4038 237.987 17.1639 238.186 17.9116C238.386 18.6551 238.695 19.3243 239.119 19.9192C239.543 20.514 240.081 20.9973 240.743 21.3609C241.4 21.7285 242.176 21.9103 243.066 21.9103Z" fill="#001E40"/>
<path d="M255.39 6.7666H259.655L263.216 20.0226H263.284L266.705 6.7666H270.758L274.035 20.0226H274.107L277.808 6.7666H281.895L276.184 24.5211H272.063L268.676 11.3312H268.608L265.259 24.5211H261.028L255.39 6.7666Z" fill="#001E40"/>
<path d="M297.648 0H302.053V24.5208H297.648V0Z" fill="#001E40"/>
<path d="M308.861 0H312.88V24.5208H308.861V0Z" fill="#001E40"/>
<path d="M319.201 0H323.22V24.5208H319.201V0Z" fill="#001E40"/>
<path d="M345.473 24.5211H341.526V22.0467H341.458C340.962 22.9431 340.229 23.6577 339.254 24.1947C338.279 24.7317 337.287 25.0002 336.273 25.0002C333.878 25.0002 332.144 24.4219 331.076 23.2694C330.008 22.1128 329.473 20.3654 329.473 18.0315V6.7666H333.492V17.6514C333.492 19.2088 333.798 20.3076 334.408 20.9479C335.019 21.5923 335.875 21.9104 336.981 21.9104C337.825 21.9104 338.533 21.7864 339.097 21.5344C339.661 21.2825 340.119 20.9437 340.47 20.5183C340.822 20.0969 341.072 19.5888 341.229 18.9898C341.382 18.395 341.458 17.7547 341.458 17.069V6.7666H345.473V24.5211Z" fill="#001E40"/>
<path d="M351.671 6.76651H355.478V9.23677H355.584C355.889 8.80303 356.216 8.40234 356.572 8.03469C356.924 7.67117 357.314 7.36136 357.75 7.10938C358.187 6.85739 358.683 6.65498 359.247 6.50627C359.811 6.35756 360.459 6.2832 361.188 6.2832C362.291 6.2832 363.321 6.52279 364.27 7.0061C365.224 7.48529 365.898 8.22884 366.297 9.23677C366.979 8.32385 367.768 7.60095 368.658 7.0722C369.553 6.54758 370.668 6.2832 372.007 6.2832C373.932 6.2832 375.433 6.74173 376.501 7.65878C377.569 8.57583 378.104 10.1084 378.104 12.2606V24.521H374.089V14.1484C374.089 13.4379 374.063 12.7934 374.017 12.2069C373.97 11.6244 373.834 11.1204 373.61 10.6991C373.389 10.2736 373.054 9.94728 372.605 9.72008C372.16 9.48875 371.549 9.37309 370.774 9.37309C369.413 9.37309 368.425 9.78618 367.815 10.6124C367.2 11.4344 366.899 12.6034 366.899 14.1153V24.521H362.88V13.1198C362.88 11.8805 362.651 10.9511 362.193 10.3191C361.735 9.69117 360.892 9.37309 359.671 9.37309C359.153 9.37309 358.653 9.47636 358.174 9.68291C357.691 9.88945 357.267 10.1869 356.902 10.5752C356.538 10.9676 356.245 11.4468 356.025 12.021C355.8 12.591 355.69 13.2437 355.69 13.979V24.521H351.671V6.76651Z" fill="#001E40"/>
<path d="M384.357 0H388.376V3.70952H384.357V0ZM384.357 6.76636H388.376V24.5208H384.357V6.76636Z" fill="#001E40"/>
<path d="M394.637 6.76651H398.444V9.37309L398.512 9.44332C399.122 8.46017 399.924 7.6877 400.912 7.1259C401.899 6.5641 402.989 6.2832 404.189 6.2832C406.185 6.2832 407.758 6.78717 408.911 7.7951C410.064 8.80303 410.637 10.3149 410.637 12.3308V24.521H406.622V13.3594C406.571 11.9631 406.266 10.9511 405.702 10.3191C405.138 9.69117 404.261 9.37309 403.061 9.37309C402.378 9.37309 401.768 9.49702 401.229 9.73661C400.687 9.9762 400.229 10.3067 399.852 10.7321C399.479 11.1576 399.182 11.6533 398.97 12.2275C398.762 12.7976 398.656 13.4048 398.656 14.0451V24.521H394.637V6.76651Z" fill="#001E40"/>
<path d="M432.084 20.5719C432.084 21.051 432.147 21.3939 432.279 21.6005C432.406 21.807 432.66 21.9103 433.033 21.9103H433.457C433.623 21.9103 433.809 21.8896 434.021 21.8442V24.554C433.881 24.5995 433.699 24.6532 433.474 24.711C433.254 24.7647 433.021 24.8184 432.788 24.8638C432.554 24.9093 432.317 24.9423 432.084 24.9671C431.846 24.9919 431.647 25.0002 431.486 25.0002C430.659 25.0002 429.981 24.8432 429.438 24.521C428.9 24.1988 428.548 23.6411 428.383 22.8397C427.582 23.5957 426.602 24.1451 425.441 24.4879C424.275 24.8308 423.156 25.0002 422.075 25.0002C421.252 25.0002 420.464 24.8928 419.713 24.6738C418.959 24.459 418.297 24.1368 417.721 23.7155C417.144 23.29 416.686 22.753 416.347 22.1003C416.004 21.4476 415.834 20.6875 415.834 19.8159C415.834 18.7171 416.042 17.8248 416.453 17.135C416.86 16.4493 417.403 15.9123 418.073 15.524C418.742 15.1356 419.493 14.8547 420.328 14.6813C421.163 14.5078 422.003 14.3797 422.85 14.2847C423.575 14.1484 424.271 14.0534 424.928 13.9955C425.585 13.9377 426.166 13.8386 426.674 13.7022C427.179 13.5659 427.577 13.3552 427.87 13.0661C428.167 12.7811 428.311 12.3514 428.311 11.7773C428.311 11.2774 428.188 10.8643 427.942 10.5421C427.696 10.224 427.391 9.9762 427.026 9.8027C426.662 9.63334 426.255 9.51767 425.81 9.45984C425.364 9.40614 424.94 9.37309 424.542 9.37309C423.414 9.37309 422.486 9.60442 421.757 10.0629C421.027 10.5215 420.616 11.2278 420.523 12.1903H416.504C416.576 11.0461 416.856 10.096 417.352 9.34004C417.844 8.5841 418.471 7.97686 419.234 7.52246C419.997 7.06394 420.862 6.74173 421.825 6.55997C422.791 6.37408 423.775 6.2832 424.788 6.2832C425.678 6.2832 426.56 6.37408 427.429 6.55997C428.298 6.74173 429.082 7.03915 429.773 7.45224C430.469 7.86532 431.024 8.39821 431.448 9.05088C431.872 9.69943 432.084 10.4967 432.084 11.4344V20.5719ZM428.065 15.6272C427.454 16.0155 426.704 16.251 425.81 16.3295C424.915 16.4121 424.025 16.5319 423.13 16.6889C422.706 16.7591 422.295 16.8582 421.897 16.9821C421.498 17.1102 421.146 17.2796 420.841 17.4985C420.536 17.7174 420.294 18.0025 420.116 18.3577C419.942 18.713 419.853 19.1426 419.853 19.6424C419.853 20.0803 419.98 20.4438 420.239 20.7412C420.498 21.0428 420.811 21.2741 421.176 21.4476C421.54 21.617 421.939 21.7409 422.371 21.807C422.808 21.8772 423.202 21.9103 423.554 21.9103C423.999 21.9103 424.483 21.8524 425 21.7409C425.517 21.6252 426.005 21.4311 426.462 21.1543C426.92 20.8817 427.302 20.5306 427.607 20.1092C427.912 19.6837 428.065 19.1632 428.065 18.5436V15.6272Z" fill="#001E40"/>
<path d="M436.497 6.76658H439.528V1.44189H443.543V6.76658H447.176V9.68297H443.543V19.1633C443.543 19.5764 443.56 19.9317 443.598 20.2291C443.632 20.5265 443.713 20.7785 443.844 20.985C443.971 21.1916 444.166 21.3444 444.425 21.4477C444.683 21.5509 445.035 21.6005 445.485 21.6005C445.764 21.6005 446.048 21.5964 446.328 21.584C446.612 21.5716 446.892 21.5344 447.176 21.4642V24.488C446.727 24.5334 446.294 24.5789 445.87 24.6243C445.446 24.6698 445.014 24.6945 444.565 24.6945C443.509 24.6945 442.657 24.5954 442.013 24.4012C441.364 24.2071 440.859 23.9221 440.495 23.542C440.13 23.1661 439.884 22.6911 439.757 22.1169C439.626 21.5468 439.549 20.8941 439.528 20.1588V9.68297H436.497V6.76658Z" fill="#001E40"/>
<path d="M454.82 16.6558C454.82 17.3415 454.917 18.0066 455.116 18.6469C455.316 19.2913 455.617 19.849 456.015 20.3323C456.418 20.8115 456.922 21.1956 457.533 21.4807C458.143 21.7698 458.873 21.9103 459.716 21.9103C460.895 21.9103 461.84 21.6665 462.557 21.1708C463.273 20.6793 463.807 19.9398 464.159 18.9567H467.966C467.754 19.9192 467.39 20.7784 466.872 21.5344C466.355 22.2903 465.732 22.9223 465.007 23.4387C464.278 23.955 463.46 24.3433 462.557 24.6077C461.649 24.868 460.704 25.0002 459.716 25.0002C458.283 25.0002 457.016 24.773 455.913 24.3144C454.807 23.8559 453.874 23.2156 453.111 22.3936C452.344 21.5674 451.772 20.5843 451.382 19.44C450.996 18.2916 450.801 17.0358 450.801 15.6603C450.801 14.4004 451.004 13.2065 451.415 12.0705C451.827 10.9387 452.416 9.94315 453.179 9.08393C453.942 8.22471 454.866 7.54312 455.947 7.03915C457.028 6.53519 458.249 6.2832 459.614 6.2832C461.047 6.2832 462.332 6.57649 463.472 7.15895C464.613 7.74553 465.558 8.518 466.309 9.47636C467.063 10.4389 467.606 11.5459 467.949 12.7934C468.288 14.041 468.377 15.3298 468.212 16.6558H454.82ZM464.193 14.0823C464.146 13.4626 464.011 12.8678 463.79 12.2936C463.566 11.7236 463.26 11.2237 462.875 10.8024C462.485 10.3769 462.014 10.034 461.463 9.76965C460.912 9.50528 460.293 9.37309 459.614 9.37309C458.907 9.37309 458.266 9.49702 457.69 9.73661C457.117 9.9762 456.621 10.3067 456.21 10.7321C455.799 11.1576 455.473 11.6533 455.222 12.2275C454.977 12.7976 454.841 13.4172 454.82 14.0823H464.193Z" fill="#001E40"/>
<path d="M490.626 24.5208H486.819V22.1167H486.747C486.208 23.1452 485.42 23.8847 484.385 24.3308C483.351 24.7769 482.261 25 481.108 25C479.675 25 478.425 24.7563 477.356 24.2647C476.284 23.7731 475.398 23.0998 474.694 22.253C473.99 21.4061 473.46 20.4065 473.108 19.2498C472.757 18.0932 472.578 16.8498 472.578 15.5238C472.578 13.921 472.803 12.533 473.248 11.3681C473.693 10.1991 474.287 9.23662 475.029 8.48067C475.767 7.72472 476.614 7.17118 477.564 6.81593C478.518 6.46067 479.489 6.28305 480.472 6.28305C481.036 6.28305 481.613 6.33675 482.202 6.44002C482.787 6.54329 483.351 6.70853 483.893 6.93572C484.432 7.16705 484.932 7.45621 485.39 7.81147C485.848 8.16672 486.229 8.58394 486.535 9.06725H486.607V0H490.626V24.5208ZM476.597 15.8336C476.597 16.5854 476.695 17.3331 476.894 18.0643C477.093 18.7954 477.403 19.4481 477.814 20.0223C478.225 20.5924 478.747 21.0509 479.383 21.3938C480.014 21.7407 480.769 21.9101 481.638 21.9101C482.528 21.9101 483.3 21.7284 483.944 21.3607C484.593 20.9972 485.119 20.5139 485.53 19.919C485.941 19.3242 486.246 18.655 486.45 17.9114C486.649 17.1637 486.747 16.4037 486.747 15.6271C486.747 13.6566 486.293 12.1241 485.39 11.0253C484.487 9.92647 483.258 9.37293 481.706 9.37293C480.769 9.37293 479.976 9.56295 479.328 9.94299C478.683 10.3189 478.153 10.8105 477.742 11.4177C477.331 12.025 477.038 12.7107 476.86 13.479C476.686 14.2474 476.597 15.0322 476.597 15.8336Z" fill="#001E40"/>
<path d="M497.104 19.8862H502V24.5211H497.104V19.8862Z" fill="#001E40"/>
</g>
<defs>
<clipPath id="clip0_2_1537">
<rect width="502" height="25" fill="white"/>
</clipPath>
</defs>
</svg>
